<svg xmlns="http://www.w3.org/2000/svg" width="340" height="200" viewBox="0 0 340 200"><style>* {
          font-family: 'Times New Roman', Times, serif"Helvetica Neue", Sans-Serif
        }</style><g class="gpsc-root"><rect x="1" y="1" rx="5" ry="5" height="99%" width="99.41176470588235%" stroke="#15171E" stroke-width="1" fill="#15171E" stroke-opacity="1"></rect><text x="30" y="40" class="gpsc-item" style="--gpsc-i: 0; font-size: 22px; fill: #56B6C2;">Top Languages by Commit</text><g transform="translate(0,40)"><g transform="translate(40,0)"><rect y="18" width="14" height="14" class="gpsc-item" style="--gpsc-i: 0; stroke-width: 1px;" fill="#e34c26" stroke="#15171E"></rect><rect y="43.2" width="14" height="14" class="gpsc-item" style="--gpsc-i: 1; stroke-width: 1px;" fill="#3178c6" stroke="#15171E"></rect><rect y="68.4" width="14" height="14" class="gpsc-item" style="--gpsc-i: 2; stroke-width: 1px;" fill="#3572A5" stroke="#15171E"></rect><rect y="93.60000000000002" width="14" height="14" class="gpsc-item" style="--gpsc-i: 3; stroke-width: 1px;" fill="#f1e05a" stroke="#15171E"></rect><rect y="118.80000000000001" width="14" height="14" class="gpsc-item" style="--gpsc-i: 4; stroke-width: 1px;" fill="#3D6117" stroke="#15171E"></rect><text x="16.8" y="30" class="gpsc-item" style="--gpsc-i: 0; fill: #8B92A5; font-size: 14px;">HTML</text><text x="16.8" y="55.2" class="gpsc-item" style="--gpsc-i: 1; fill: #8B92A5; font-size: 14px;">TypeScript</text><text x="16.8" y="80.4" class="gpsc-item" style="--gpsc-i: 2; fill: #8B92A5; font-size: 14px;">Python</text><text x="16.8" y="105.60000000000002" class="gpsc-item" style="--gpsc-i: 3; fill: #8B92A5; font-size: 14px;">JavaScript</text><text x="16.8" y="130.8" class="gpsc-item" style="--gpsc-i: 4; fill: #8B92A5; font-size: 14px;">TeX</text></g><g transform="translate( 230, 80 )"><g class="arc" style="--gpsc-i: 0;"><path d="M3.67394039744206e-15,-60A60,60,0,1,1,-24.71407489463956,54.673709423288145L-14.416543688539743,31.89299716358475A35,35,0,1,0,2.1431318985078682e-15,-35Z" style="fill: #e34c26; stroke-width: 2px;" stroke="#15171E"></path></g><g class="arc" style="--gpsc-i: 1;"><path d="M-24.71407489463956,54.673709423288145A60,60,0,0,1,-58.94268301690501,-11.214281910521835L-34.38323175986125,-6.541664447804404A35,35,0,0,0,-14.416543688539743,31.89299716358475Z" style="fill: #3178c6; stroke-width: 2px;" stroke="#15171E"></path></g><g class="arc" style="--gpsc-i: 2;"><path d="M-58.94268301690501,-11.214281910521835A60,60,0,0,1,-19.98838768452351,-56.57264672766503L-11.659892815972047,-33.00071059113794A35,35,0,0,0,-34.38323175986125,-6.541664447804404Z" style="fill: #3572A5; stroke-width: 2px;" stroke="#15171E"></path></g><g class="arc" style="--gpsc-i: 3;"><path d="M-19.98838768452351,-56.57264672766503A60,60,0,0,1,-4.362838692468368,-59.84117009671102L-2.5449892372732146,-34.907349223081425A35,35,0,0,0,-11.659892815972047,-33.00071059113794Z" style="fill: #f1e05a; stroke-width: 2px;" stroke="#15171E"></path></g><g class="arc" style="--gpsc-i: 4;"><path d="M-4.362838692468368,-59.84117009671102A60,60,0,0,1,-6.431252637433369e-14,-60L-3.7515640385027985e-14,-35A35,35,0,0,0,-2.5449892372732146,-34.907349223081425Z" style="fill: #3D6117; stroke-width: 2px;" stroke="#15171E"></path></g></g></g></g></svg>