<svg xmlns="http://www.w3.org/2000/svg" width="340" height="200" viewBox="0 0 340 200"><style>* {
          font-family: 'Times New Roman', Times, serif"Helvetica Neue", Sans-Serif
        }</style><g class="gpsc-root"><rect x="1" y="1" rx="5" ry="5" height="99%" width="99.41176470588235%" stroke="#15171E" stroke-width="1" fill="#15171E" stroke-opacity="1"></rect><text x="30" y="40" class="gpsc-item" style="--gpsc-i: 0; font-size: 22px; fill: #56B6C2;">Top Languages by Commit</text><g transform="translate(0,40)"><g transform="translate(40,0)"><rect y="18" width="14" height="14" class="gpsc-item" style="--gpsc-i: 0; stroke-width: 1px;" fill="#3178c6" stroke="#15171E"></rect><rect y="43.2" width="14" height="14" class="gpsc-item" style="--gpsc-i: 1; stroke-width: 1px;" fill="#e34c26" stroke="#15171E"></rect><rect y="68.4" width="14" height="14" class="gpsc-item" style="--gpsc-i: 2; stroke-width: 1px;" fill="#3572A5" stroke="#15171E"></rect><rect y="93.60000000000002" width="14" height="14" class="gpsc-item" style="--gpsc-i: 3; stroke-width: 1px;" fill="#f1e05a" stroke="#15171E"></rect><rect y="118.80000000000001" width="14" height="14" class="gpsc-item" style="--gpsc-i: 4; stroke-width: 1px;" fill="#663399" stroke="#15171E"></rect><text x="16.8" y="30" class="gpsc-item" style="--gpsc-i: 0; fill: #8B92A5; font-size: 14px;">TypeScript</text><text x="16.8" y="55.2" class="gpsc-item" style="--gpsc-i: 1; fill: #8B92A5; font-size: 14px;">HTML</text><text x="16.8" y="80.4" class="gpsc-item" style="--gpsc-i: 2; fill: #8B92A5; font-size: 14px;">Python</text><text x="16.8" y="105.60000000000002" class="gpsc-item" style="--gpsc-i: 3; fill: #8B92A5; font-size: 14px;">JavaScript</text><text x="16.8" y="130.8" class="gpsc-item" style="--gpsc-i: 4; fill: #8B92A5; font-size: 14px;">CSS</text></g><g transform="translate( 230, 80 )"><g class="arc" style="--gpsc-i: 0;"><path d="M3.67394039744206e-15,-60A60,60,0,0,1,14.413290064940819,58.243086023182855L8.407752537882144,33.97513351352333A35,35,0,0,0,2.1431318985078682e-15,-35Z" style="fill: #3178c6; stroke-width: 2px;" stroke="#15171E"></path></g><g class="arc" style="--gpsc-i: 1;"><path d="M14.413290064940819,58.243086023182855A60,60,0,0,1,-40.98786420938812,-43.81774740390885L-23.909587455476405,-25.56035265228016A35,35,0,0,0,8.407752537882144,33.97513351352333Z" style="fill: #e34c26; stroke-width: 2px;" stroke="#15171E"></path></g><g class="arc" style="--gpsc-i: 2;"><path d="M-40.98786420938812,-43.81774740390885A60,60,0,0,1,-13.705775850376876,-58.41362605025668L-7.995035912719843,-34.074615195983064A35,35,0,0,0,-23.909587455476405,-25.56035265228016Z" style="fill: #3572A5; stroke-width: 2px;" stroke="#15171E"></path></g><g class="arc" style="--gpsc-i: 3;"><path d="M-13.705775850376876,-58.41362605025668A60,60,0,0,1,-4.362838692468315,-59.84117009671102L-2.5449892372731835,-34.907349223081425A35,35,0,0,0,-7.995035912719843,-34.074615195983064Z" style="fill: #f1e05a; stroke-width: 2px;" stroke="#15171E"></path></g><g class="arc" style="--gpsc-i: 4;"><path d="M-4.362838692468315,-59.84117009671102A60,60,0,0,1,-1.1021821192326178e-14,-60L-6.429395695523604e-15,-35A35,35,0,0,0,-2.5449892372731835,-34.907349223081425Z" style="fill: #663399; stroke-width: 2px;" stroke="#15171E"></path></g></g></g></g></svg>