<svg xmlns="http://www.w3.org/2000/svg" width="340" height="200" viewBox="0 0 340 200"><style>* {
          font-family: 'Times New Roman', Times, serif"Helvetica Neue", Sans-Serif
        }</style><g class="gpsc-root"><rect x="1" y="1" rx="5" ry="5" height="99%" width="99.41176470588235%" stroke="#15171E" stroke-width="1" fill="#15171E" stroke-opacity="1"></rect><text x="30" y="40" class="gpsc-item" style="--gpsc-i: 0; font-size: 22px; fill: #56B6C2;">Top Languages by Repo</text><g transform="translate(0,40)"><g transform="translate(40,0)"><rect y="18" width="14" height="14" class="gpsc-item" style="--gpsc-i: 0; stroke-width: 1px;" fill="#3178c6" stroke="#15171E"></rect><rect y="43.2" width="14" height="14" class="gpsc-item" style="--gpsc-i: 1; stroke-width: 1px;" fill="#e34c26" stroke="#15171E"></rect><rect y="68.4" width="14" height="14" class="gpsc-item" style="--gpsc-i: 2; stroke-width: 1px;" fill="#3572A5" stroke="#15171E"></rect><rect y="93.60000000000002" width="14" height="14" class="gpsc-item" style="--gpsc-i: 3; stroke-width: 1px;" fill="#f1e05a" stroke="#15171E"></rect><rect y="118.80000000000001" width="14" height="14" class="gpsc-item" style="--gpsc-i: 4; stroke-width: 1px;" fill="#336790" stroke="#15171E"></rect><text x="16.8" y="30" class="gpsc-item" style="--gpsc-i: 0; fill: #8B92A5; font-size: 14px;">TypeScript</text><text x="16.8" y="55.2" class="gpsc-item" style="--gpsc-i: 1; fill: #8B92A5; font-size: 14px;">HTML</text><text x="16.8" y="80.4" class="gpsc-item" style="--gpsc-i: 2; fill: #8B92A5; font-size: 14px;">Python</text><text x="16.8" y="105.60000000000002" class="gpsc-item" style="--gpsc-i: 3; fill: #8B92A5; font-size: 14px;">JavaScript</text><text x="16.8" y="130.8" class="gpsc-item" style="--gpsc-i: 4; fill: #8B92A5; font-size: 14px;">PLpgSQL</text></g><g transform="translate( 230, 80 )"><g class="arc" style="--gpsc-i: 0;"><path d="M3.67394039744206e-15,-60A60,60,0,0,1,56.70004912288012,19.62407779904529L33.0750286550134,11.447378716109752A35,35,0,0,0,2.1431318985078682e-15,-35Z" style="fill: #3178c6; stroke-width: 2px;" stroke="#15171E"></path></g><g class="arc" style="--gpsc-i: 1;"><path d="M56.70004912288012,19.62407779904529A60,60,0,0,1,-37.0895391732363,47.16318568456726L-21.63556451772117,27.511858315997568A35,35,0,0,0,33.0750286550134,11.447378716109752Z" style="fill: #e34c26; stroke-width: 2px;" stroke="#15171E"></path></g><g class="arc" style="--gpsc-i: 2;"><path d="M-37.0895391732363,47.16318568456726A60,60,0,0,1,-54.577919721271115,-24.924900780113166L-31.83711983740815,-14.539525455066013A35,35,0,0,0,-21.63556451772117,27.511858315997568Z" style="fill: #3572A5; stroke-width: 2px;" stroke="#15171E"></path></g><g class="arc" style="--gpsc-i: 3;"><path d="M-54.577919721271115,-24.924900780113166A60,60,0,0,1,-11.355074661624634,-58.9157218357624L-6.62379355261437,-34.36750440419473A35,35,0,0,0,-31.83711983740815,-14.539525455066013Z" style="fill: #f1e05a; stroke-width: 2px;" stroke="#15171E"></path></g><g class="arc" style="--gpsc-i: 4;"><path d="M-11.355074661624634,-58.9157218357624A60,60,0,0,1,-1.1021821192326178e-14,-60L-6.429395695523604e-15,-35A35,35,0,0,0,-6.62379355261437,-34.36750440419473Z" style="fill: #336790; stroke-width: 2px;" stroke="#15171E"></path></g></g></g></g></svg>